<svg width="60" height="60" viewBox="0 0 60 60" fill="none" xmlns="http://www.w3.org/2000/svg">
<rect width="60" height="60" rx="30" fill="url(#paint0_linear_222_121)"/>
<path d="M36.1043 17.6271C35.8519 16.0573 35.0487 14.6287 33.8385 13.5976C32.6283 12.5664 31.0904 12 29.5004 12C27.9105 12 26.3726 12.5664 25.1624 13.5976C23.9522 14.6287 23.1489 16.0573 22.8966 17.6271C22.3976 17.7341 21.9504 18.0091 21.6296 18.406C21.3087 18.803 21.1337 19.2979 21.1337 19.8083C21.1337 20.3187 21.3087 20.8136 21.6296 21.2105C21.9504 21.6075 22.3976 21.8824 22.8966 21.9895C23.1489 23.5593 23.9522 24.9878 25.1624 26.019C26.3726 27.0502 27.9105 27.6166 29.5004 27.6166C31.0904 27.6166 32.6283 27.0502 33.8385 26.019C35.0487 24.9878 35.8519 23.5593 36.1043 21.9895C36.6033 21.8824 37.0505 21.6075 37.3713 21.2105C37.6921 20.8136 37.8671 20.3187 37.8671 19.8083C37.8671 19.2979 37.6921 18.803 37.3713 18.406C37.0505 18.0091 36.6033 17.7341 36.1043 17.6271ZM35.6581 20.9231C35.6397 20.9231 35.6213 20.9231 35.6062 20.9231C35.4666 20.9226 35.3319 20.9744 35.2286 21.0684C35.1253 21.1623 35.0611 21.2916 35.0485 21.4307C34.9241 22.8169 34.2855 24.1065 33.2582 25.0457C32.231 25.9849 30.8895 26.5057 29.4976 26.5057C28.1058 26.5057 26.7643 25.9849 25.7371 25.0457C24.7098 24.1065 24.0712 22.8169 23.9468 21.4307C23.9342 21.2916 23.8699 21.1623 23.7667 21.0684C23.6634 20.9744 23.5287 20.9226 23.3891 20.9231C23.3746 20.9231 23.3562 20.9231 23.3378 20.9231C23.0419 20.9231 22.7582 20.8056 22.549 20.5964C22.3399 20.3873 22.2223 20.1035 22.2223 19.8077C22.2223 19.5119 22.3399 19.2282 22.549 19.019C22.7582 18.8098 23.0419 18.6923 23.3378 18.6923C23.3562 18.6923 23.3746 18.6923 23.3896 18.6923C23.5292 18.6929 23.664 18.6411 23.7672 18.5471C23.8705 18.4531 23.9348 18.3238 23.9473 18.1848C24.0331 17.2995 24.3286 16.4474 24.8094 15.6992C25.2902 14.9509 25.9423 14.328 26.7119 13.8821V15.3466C26.7119 15.4945 26.7707 15.6364 26.8752 15.741C26.9798 15.8456 27.1217 15.9043 27.2696 15.9043C27.4175 15.9043 27.5594 15.8456 27.664 15.741C27.7686 15.6364 27.8273 15.4945 27.8273 15.3466V13.3824C28.1898 13.2647 28.5637 13.1853 28.9427 13.1453V15.9043C28.9427 16.0522 29.0015 16.1941 29.1061 16.2987C29.2107 16.4033 29.3525 16.462 29.5004 16.462C29.6483 16.462 29.7902 16.4033 29.8948 16.2987C29.9994 16.1941 30.0581 16.0522 30.0581 15.9043V13.1453C30.4372 13.1853 30.811 13.2648 31.1736 13.3824V15.3466C31.1736 15.4945 31.2323 15.6364 31.3369 15.741C31.4415 15.8456 31.5834 15.9043 31.7313 15.9043C31.8792 15.9043 32.021 15.8456 32.1256 15.741C32.2302 15.6364 32.289 15.4945 32.289 15.3466V13.8821C33.0589 14.3288 33.7111 14.9528 34.1916 15.7022C34.672 16.4516 34.9667 17.3048 35.0513 18.1909C35.0639 18.33 35.1281 18.4593 35.2314 18.5532C35.3347 18.6472 35.4694 18.699 35.609 18.6984C35.6235 18.6984 35.6419 18.6984 35.6603 18.6984C35.9562 18.6984 36.2399 18.816 36.449 19.0251C36.6582 19.2343 36.7757 19.518 36.7757 19.8139C36.7757 20.1097 36.6582 20.3934 36.449 20.6026C36.2399 20.8118 35.9562 20.9293 35.6603 20.9293L35.6581 20.9231Z" fill="white"/>
<path d="M29.5004 24.27C29.013 24.2672 28.5348 24.1371 28.1132 23.8925C27.6915 23.6479 27.3411 23.2974 27.0967 22.8757C27.0316 22.7485 27.0178 22.6011 27.0583 22.4639C27.0987 22.3268 27.1902 22.2105 27.314 22.1389C27.4377 22.0673 27.5842 22.046 27.7232 22.0793C27.8623 22.1127 27.9832 22.1981 28.061 22.318C28.2055 22.5725 28.4148 22.7841 28.6676 22.9313C28.9205 23.0785 29.2079 23.156 29.5004 23.156C29.793 23.156 30.0804 23.0785 30.3332 22.9313C30.5861 22.7841 30.7954 22.5725 30.9399 22.318C31.0177 22.1981 31.1386 22.1127 31.2776 22.0793C31.4167 22.046 31.5632 22.0673 31.6869 22.1389C31.8106 22.2105 31.9022 22.3268 31.9426 22.4639C31.983 22.6011 31.9693 22.7485 31.9042 22.8757C31.6597 23.2974 31.3093 23.6479 30.8877 23.8925C30.4661 24.1371 29.9879 24.2672 29.5004 24.27Z" fill="white"/>
<path d="M36.1929 32.0776C36.045 32.0776 35.9032 32.0189 35.7986 31.9143C35.694 31.8097 35.6352 31.6678 35.6352 31.5199V30.4045C35.6352 30.2566 35.694 30.1147 35.7986 30.0101C35.9032 29.9055 36.045 29.8468 36.1929 29.8468H38.9815V26.4152L36.1009 25.935C36.0273 25.9245 35.9565 25.8994 35.8927 25.8611C35.829 25.8229 35.7735 25.7722 35.7296 25.7122C35.6857 25.6522 35.6542 25.584 35.637 25.5116C35.6199 25.4393 35.6174 25.3642 35.6296 25.2909C35.6419 25.2175 35.6687 25.1474 35.7085 25.0845C35.7483 25.0217 35.8003 24.9675 35.8613 24.925C35.9224 24.8825 35.9913 24.8527 36.0641 24.8373C36.1368 24.8219 36.2119 24.8212 36.2849 24.8352L39.6312 25.3929C39.7613 25.4147 39.8795 25.4819 39.9648 25.5826C40.05 25.6832 40.0968 25.8109 40.0969 25.9428V30.4045C40.0969 30.5524 40.0381 30.6943 39.9335 30.7989C39.8289 30.9034 39.6871 30.9622 39.5392 30.9622H36.7506V31.5199C36.7506 31.6678 36.6919 31.8097 36.5873 31.9143C36.4827 32.0189 36.3408 32.0776 36.1929 32.0776Z" fill="white"/>
<path d="M41.77 30.9618H41.2123C41.0644 30.9618 40.9225 30.903 40.818 30.7984C40.7134 30.6938 40.6546 30.552 40.6546 30.4041C40.6546 30.2561 40.7134 30.1143 40.818 30.0097C40.9225 29.9051 41.0644 29.8463 41.2123 29.8463H41.77C42.0658 29.8463 42.3496 29.7288 42.5587 29.5196C42.7679 29.3105 42.8854 29.0268 42.8854 28.7309V28.1732C42.8854 27.8774 42.7679 27.5937 42.5587 27.3845C42.3496 27.1753 42.0658 27.0578 41.77 27.0578H41.2123C41.0644 27.0578 40.9225 26.999 40.818 26.8945C40.7134 26.7899 40.6546 26.648 40.6546 26.5001C40.6546 26.3522 40.7134 26.2103 40.818 26.1057C40.9225 26.0011 41.0644 25.9424 41.2123 25.9424H41.77C42.3617 25.9424 42.9291 26.1774 43.3475 26.5958C43.7658 27.0141 44.0009 27.5816 44.0009 28.1732V28.7309C44.0009 29.3226 43.7658 29.89 43.3475 30.3084C42.9291 30.7267 42.3617 30.9618 41.77 30.9618Z" fill="white"/>
<path d="M22.8079 32.0776C22.66 32.0776 22.5182 32.0189 22.4136 31.9143C22.309 31.8097 22.2502 31.6678 22.2502 31.5199V30.9622H19.4617C19.3138 30.9622 19.1719 30.9034 19.0673 30.7989C18.9627 30.6943 18.904 30.5524 18.904 30.4045V25.9428C18.904 25.8109 18.9508 25.6832 19.0361 25.5826C19.1213 25.4819 19.2395 25.4147 19.3696 25.3929L22.7159 24.8352C22.7889 24.8212 22.864 24.8219 22.9368 24.8373C23.0095 24.8527 23.0785 24.8825 23.1395 24.925C23.2006 24.9675 23.2525 25.0217 23.2923 25.0845C23.3321 25.1474 23.3589 25.2175 23.3712 25.2909C23.3835 25.3642 23.381 25.4393 23.3638 25.5116C23.3466 25.584 23.3152 25.6522 23.2713 25.7122C23.2274 25.7722 23.1719 25.8229 23.1081 25.8611C23.0443 25.8994 22.9736 25.9245 22.8999 25.935L20.0194 26.4152V29.8468H22.8079C22.9558 29.8468 23.0977 29.9055 23.2023 30.0101C23.3069 30.1147 23.3656 30.2566 23.3656 30.4045V31.5199C23.3656 31.6678 23.3069 31.8097 23.2023 31.9143C23.0977 32.0189 22.9558 32.0776 22.8079 32.0776Z" fill="white"/>
<path d="M17.7885 30.9618H17.2308C16.6392 30.9618 16.0718 30.7267 15.6534 30.3084C15.235 29.89 15 29.3226 15 28.7309V28.1732C15 27.5816 15.235 27.0141 15.6534 26.5958C16.0718 26.1774 16.6392 25.9424 17.2308 25.9424H17.7885C17.9365 25.9424 18.0783 26.0011 18.1829 26.1057C18.2875 26.2103 18.3463 26.3522 18.3463 26.5001C18.3463 26.648 18.2875 26.7899 18.1829 26.8945C18.0783 26.999 17.9365 27.0578 17.7885 27.0578H17.2308C16.935 27.0578 16.6513 27.1753 16.4421 27.3845C16.2329 27.5937 16.1154 27.8774 16.1154 28.1732V28.7309C16.1154 29.0268 16.2329 29.3105 16.4421 29.5196C16.6513 29.7288 16.935 29.8463 17.2308 29.8463H17.7885C17.9365 29.8463 18.0783 29.9051 18.1829 30.0097C18.2875 30.1143 18.3463 30.2561 18.3463 30.4041C18.3463 30.552 18.2875 30.6938 18.1829 30.7984C18.0783 30.903 17.9365 30.9618 17.7885 30.9618Z" fill="white"/>
<path d="M37.8661 32.6351H33.9621V29.8466C34.11 29.8466 34.2519 29.7878 34.3565 29.6832C34.461 29.5786 34.5198 29.4368 34.5198 29.2888C34.5198 29.1409 34.461 28.9991 34.3565 28.8945C34.2519 28.7899 34.11 28.7311 33.9621 28.7311V28.1734C33.9621 28.0255 33.9033 27.8837 33.7987 27.7791C33.6942 27.6745 33.5523 27.6157 33.4044 27.6157C33.2565 27.6157 33.1146 27.6745 33.01 27.7791C32.9054 27.8837 32.8467 28.0255 32.8467 28.1734V28.7311C32.6988 28.7311 32.5569 28.7899 32.4523 28.8945C32.3477 28.9991 32.289 29.1409 32.289 29.2888C32.289 29.4368 32.3477 29.5786 32.4523 29.6832C32.5569 29.7878 32.6988 29.8466 32.8467 29.8466V32.6351C32.6988 32.6351 32.5569 32.6939 32.4523 32.7984C32.3477 32.903 32.289 33.0449 32.289 33.1928C32.289 33.3407 32.3477 33.4826 32.4523 33.5872C32.5569 33.6918 32.6988 33.7505 32.8467 33.7505H37.3083V34.8659H31.7313V32.6351C31.7313 32.4872 31.6725 32.3453 31.5679 32.2407C31.4633 32.1362 31.3215 32.0774 31.1736 32.0774H27.8273C27.6794 32.0774 27.5375 32.1362 27.4329 32.2407C27.3283 32.3453 27.2696 32.4872 27.2696 32.6351H26.1542V29.8466C26.3021 29.8466 26.4439 29.7878 26.5485 29.6832C26.6531 29.5786 26.7119 29.4368 26.7119 29.2888C26.7119 29.1409 26.6531 28.9991 26.5485 28.8945C26.4439 28.7899 26.3021 28.7311 26.1542 28.7311V28.1734C26.1542 28.0255 26.0954 27.8837 25.9908 27.7791C25.8862 27.6745 25.7444 27.6157 25.5965 27.6157C25.4486 27.6157 25.3067 27.6745 25.2021 27.7791C25.0975 27.8837 25.0388 28.0255 25.0388 28.1734V28.7311C24.8908 28.7311 24.749 28.7899 24.6444 28.8945C24.5398 28.9991 24.481 29.1409 24.481 29.2888C24.481 29.4368 24.5398 29.5786 24.6444 29.6832C24.749 29.7878 24.8908 29.8466 25.0388 29.8466V32.6351H21.1348C20.9869 32.6351 20.845 32.6939 20.7404 32.7984C20.6358 32.903 20.5771 33.0449 20.5771 33.1928V35.4236C20.5771 35.5716 20.6358 35.7134 20.7404 35.818C20.845 35.9226 20.9869 35.9814 21.1348 35.9814H26.1542C26.3021 35.9814 26.4439 35.9226 26.5485 35.818C26.6531 35.7134 26.7119 35.5716 26.7119 35.4236C26.7119 35.2757 26.6531 35.1339 26.5485 35.0293C26.4439 34.9247 26.3021 34.8659 26.1542 34.8659H21.6925V33.7505H27.2696V35.9814C27.2696 36.1293 27.3283 36.2711 27.4329 36.3757C27.5375 36.4803 27.6794 36.5391 27.8273 36.5391H31.1736C31.3215 36.5391 31.4633 36.4803 31.5679 36.3757C31.6725 36.2711 31.7313 36.1293 31.7313 35.9814H37.8661C38.014 35.9814 38.1558 35.9226 38.2604 35.818C38.365 35.7134 38.4238 35.5716 38.4238 35.4236V33.1928C38.4238 33.0449 38.365 32.903 38.2604 32.7984C38.1558 32.6939 38.014 32.6351 37.8661 32.6351ZM28.385 35.4236V33.1928H30.6158V35.4236H28.385Z" fill="white"/>
<path d="M41.7789 40.5658C41.7159 40.2163 41.5798 39.884 41.3795 39.5907C41.1792 39.2974 40.9193 39.0496 40.6167 38.8637C39.2352 37.9434 37.6491 38.775 36.744 39.4342L36.179 36.9725C36.1459 36.8283 36.0569 36.7031 35.9316 36.6245C35.8062 36.5459 35.6548 36.5203 35.5106 36.5534C35.3664 36.5864 35.2412 36.6754 35.1626 36.8008C35.084 36.9261 35.0584 37.0776 35.0915 37.2218L35.1891 37.6551H30.6158C30.4679 37.6551 30.3261 37.7139 30.2215 37.8185C30.1169 37.9231 30.0581 38.0649 30.0581 38.2128C30.0581 38.3607 30.1169 38.5026 30.2215 38.6072C30.3261 38.7118 30.4679 38.7705 30.6158 38.7705H35.4473L35.8594 40.568C35.8816 40.6652 35.9295 40.7546 35.998 40.827C36.0665 40.8993 36.1531 40.952 36.2489 40.9796C36.3446 41.0072 36.446 41.0086 36.5425 40.9836C36.639 40.9587 36.727 40.9084 36.7975 40.838C36.8165 40.8184 38.74 38.9535 39.9976 39.7923C40.1731 39.8948 40.3246 40.0336 40.4422 40.1994C40.5597 40.3652 40.6405 40.5542 40.6791 40.7537C40.7907 41.4035 40.46 42.2835 39.7489 43.2316L38.0758 45.4625C37.8172 45.8101 37.4807 46.0921 37.0932 46.2859C36.7057 46.4796 36.2781 46.5796 35.8449 46.5779C35.0334 46.5069 34.2578 46.211 33.6052 45.7235C33.7714 45.5941 33.932 45.4565 34.087 45.3108C34.1929 45.209 34.2544 45.0695 34.2581 44.9226C34.2617 44.7757 34.2073 44.6333 34.1066 44.5264C34.0059 44.4194 33.867 44.3565 33.7202 44.3513C33.5733 44.3462 33.4304 44.3991 33.3224 44.4988C32.2905 45.476 30.9233 46.0206 29.5021 46.0206C28.0809 46.0206 26.7137 45.476 25.6818 44.4988C25.5738 44.3991 25.4309 44.3462 25.284 44.3513C25.1372 44.3565 24.9984 44.4194 24.8976 44.5264C24.7969 44.6333 24.7425 44.7757 24.7461 44.9226C24.7498 45.0695 24.8113 45.209 24.9172 45.3108C25.1018 45.4826 25.2958 45.644 25.4983 45.7943C24.8747 46.248 24.1373 46.5195 23.3684 46.5785C22.9352 46.5801 22.5077 46.48 22.1203 46.2863C21.7328 46.0925 21.3962 45.8106 21.1376 45.463L19.4645 43.2322C18.7539 42.2841 18.4232 41.404 18.5342 40.7543C18.5731 40.5548 18.654 40.3658 18.7716 40.2001C18.8893 40.0343 19.0408 39.8954 19.2163 39.7928C20.4667 38.9562 22.3952 40.8196 22.417 40.8391C22.4895 40.9113 22.5805 40.9622 22.68 40.9861C22.7796 41.0101 22.8838 41.0062 22.9812 40.9748C23.0787 40.9435 23.1656 40.886 23.2325 40.8085C23.2995 40.731 23.3438 40.6366 23.3606 40.5357L23.6523 38.7705H28.385C28.5329 38.7705 28.6748 38.7118 28.7794 38.6072C28.884 38.5026 28.9427 38.3607 28.9427 38.2128C28.9427 38.0649 28.884 37.9231 28.7794 37.8185C28.6748 37.7139 28.5329 37.6551 28.385 37.6551H23.838L23.9155 37.1889C23.9298 37.1157 23.9293 37.0405 23.9139 36.9675C23.8986 36.8946 23.8689 36.8255 23.8264 36.7643C23.7839 36.703 23.7296 36.6509 23.6667 36.611C23.6037 36.5712 23.5334 36.5443 23.4599 36.532C23.3864 36.5198 23.3112 36.5223 23.2387 36.5396C23.1662 36.5569 23.0979 36.5886 23.0379 36.6327C22.9778 36.6768 22.9272 36.7325 22.8891 36.7966C22.8509 36.8606 22.826 36.9316 22.8157 37.0054L22.4175 39.3974C21.504 38.7454 19.9502 37.9607 18.595 38.8637C18.2924 39.0496 18.0325 39.2974 17.8322 39.5907C17.6319 39.884 17.4958 40.2163 17.4327 40.5658C17.223 41.7928 17.9347 43.0554 18.5705 43.9015L20.2436 46.1323C20.6055 46.619 21.0766 47.0139 21.6191 47.2852C22.1616 47.5564 22.7602 47.6964 23.3668 47.6939C24.5263 47.6053 25.6319 47.168 26.5384 46.4396C27.4788 46.9078 28.5167 47.1464 29.5671 47.1358C30.6175 47.1253 31.6505 46.8658 32.5812 46.3788C33.5773 47.0704 34.6459 47.6939 35.8427 47.6939C36.4492 47.6964 37.0478 47.5564 37.5903 47.2852C38.1328 47.0139 38.604 46.619 38.9659 46.1323L40.639 43.9015C41.2759 43.0554 41.9886 41.79 41.7789 40.5658Z" fill="white"/>
<defs>
<linearGradient id="paint0_linear_222_121" x1="0" y1="30" x2="60" y2="30" gradientUnits="userSpaceOnUse">
<stop stop-color="#57BCFF"/>
<stop offset="1" stop-color="#0099FF"/>
</linearGradient>
</defs>
</svg>
