<svg width="60" height="60" viewBox="0 0 60 60" fill="none" xmlns="http://www.w3.org/2000/svg">
<rect width="60" height="60" rx="30" fill="url(#paint0_linear_222_143)"/>
<path d="M43.913 29.1824C43.9232 29.0592 43.879 28.9326 43.777 28.8426L38.2009 23.7222C38.1193 23.6489 38.0139 23.6056 37.9017 23.6056H22.1697C22.0609 23.6056 21.9555 23.6456 21.8739 23.7189L16.2264 28.8393C16.1244 28.9292 16.0802 29.0592 16.0904 29.1824C16.0802 29.2957 16.1142 29.4123 16.1924 29.5022L29.6702 44.8501C29.6736 44.8534 29.6736 44.8534 29.677 44.8567C29.6838 44.8634 29.6906 44.8701 29.6974 44.8801C29.7008 44.8834 29.7042 44.8867 29.7076 44.8901C29.7144 44.8967 29.7212 44.9034 29.7314 44.9101C29.7348 44.9134 29.7382 44.9134 29.7382 44.9167C29.7416 44.9167 29.7416 44.92 29.745 44.92C29.7518 44.9267 29.7586 44.93 29.7688 44.9367C29.7722 44.94 29.779 44.9434 29.7824 44.9434C29.7858 44.9467 29.7926 44.95 29.796 44.95C29.7994 44.95 29.8028 44.9534 29.8028 44.9534C29.8096 44.9567 29.813 44.96 29.8198 44.96C29.8266 44.9634 29.8368 44.9667 29.8436 44.97C29.847 44.9734 29.8538 44.9733 29.8572 44.9767C29.8606 44.9767 29.8606 44.9767 29.864 44.9767C29.8674 44.9767 29.8674 44.9767 29.8708 44.98C29.8742 44.98 29.8776 44.98 29.881 44.9833C29.8946 44.9867 29.9048 44.99 29.9184 44.9933C29.9218 44.9933 29.9252 44.9967 29.932 44.9967C29.9354 44.9967 29.9388 44.9967 29.9422 44.9967C29.9592 45 29.9762 45 29.9932 45H29.9966H30C30.017 45 30.034 45 30.051 44.9967C30.0544 44.9967 30.0578 44.9967 30.0612 44.9967C30.0646 44.9967 30.068 44.9933 30.0748 44.9933C30.0884 44.99 30.102 44.9867 30.1122 44.9833C30.1156 44.9833 30.119 44.9833 30.1224 44.98C30.1258 44.98 30.1258 44.98 30.1292 44.9767C30.1326 44.9767 30.1326 44.9767 30.136 44.9767C30.1394 44.9767 30.1462 44.9734 30.1496 44.97C30.1564 44.9667 30.1666 44.9634 30.1734 44.96C30.1802 44.9567 30.1836 44.9534 30.1904 44.9534C30.1938 44.9534 30.1972 44.95 30.1972 44.95C30.2006 44.9467 30.2074 44.9434 30.2108 44.9434C30.2142 44.94 30.221 44.9367 30.2244 44.9334C30.2312 44.93 30.2414 44.9234 30.2482 44.92C30.2516 44.92 30.2516 44.9167 30.255 44.9167C30.2584 44.9134 30.2618 44.9134 30.2652 44.9101C30.272 44.9034 30.2822 44.8967 30.289 44.8901C30.2924 44.8867 30.2958 44.8834 30.2992 44.8801C30.3026 44.8767 30.3026 44.8767 30.306 44.8734C30.3094 44.8701 30.3162 44.8634 30.3196 44.8601C30.323 44.8567 30.323 44.8567 30.3264 44.8534L43.8042 29.5056C43.8892 29.4123 43.9232 29.2957 43.913 29.1824ZM42.4578 28.7993H35.1647V24.4585H37.7317L42.4578 28.7993ZM34.2943 28.7993H25.6955V24.4585H34.2943V28.7993ZM34.1447 29.6522L30 43.0978L25.8485 29.6522H34.1447ZM22.3397 24.4585H24.8285V28.7993H17.5524L22.3397 24.4585ZM24.9373 29.6522L28.9868 42.768L17.4674 29.6522H24.9373ZM31.0098 42.768L35.0525 29.6522H42.5292L31.0098 42.768ZM36.2085 21.6368C36.0147 21.4968 35.9705 21.2303 36.1133 21.0404L38.8911 17.2859C39.0339 17.096 39.3059 17.0527 39.4997 17.1926C39.6935 17.3326 39.7377 17.5991 39.5949 17.789L36.8171 21.5435C36.7321 21.6601 36.5995 21.72 36.4635 21.72C36.3751 21.7167 36.2867 21.6901 36.2085 21.6368ZM42.0804 23.9088L46.3474 21.5035C46.5548 21.3869 46.82 21.4569 46.9424 21.6601C47.0614 21.8633 46.99 22.1265 46.7826 22.2431L42.5156 24.6484C42.4476 24.6883 42.3728 24.705 42.298 24.705C42.1484 24.705 42.0022 24.6284 41.9206 24.4918C41.8016 24.2886 41.873 24.0254 42.0804 23.9088ZM23.1829 21.5402L20.4051 17.7856C20.2657 17.5957 20.3065 17.3292 20.5003 17.1893C20.6941 17.0494 20.9661 17.0927 21.1089 17.2826L23.8867 21.0371C24.0261 21.227 23.9853 21.4935 23.7915 21.6334C23.7133 21.6867 23.6249 21.7134 23.5365 21.7134C23.4005 21.7167 23.2679 21.6567 23.1829 21.5402ZM13.0576 21.6634C13.1766 21.4602 13.4418 21.3902 13.6526 21.5068L17.9196 23.9121C18.127 24.0287 18.1984 24.2886 18.0794 24.4951C17.9978 24.6317 17.8516 24.7083 17.702 24.7083C17.6272 24.7083 17.5524 24.6917 17.4844 24.6517L13.2174 22.2431C13.01 22.1265 12.9386 21.8666 13.0576 21.6634ZM30 21.7167C29.7586 21.7167 29.5648 21.5268 29.5648 21.2903V16.4264C29.5648 16.1899 29.7586 16 30 16C30.2414 16 30.4352 16.1899 30.4352 16.4264V21.2936C30.4352 21.5268 30.2414 21.7167 30 21.7167Z" fill="white"/>
<defs>
<linearGradient id="paint0_linear_222_143" x1="0" y1="30" x2="60" y2="30" gradientUnits="userSpaceOnUse">
<stop stop-color="#57BCFF"/>
<stop offset="1" stop-color="#0099FF"/>
</linearGradient>
</defs>
</svg>
