<svg width="60" height="60" viewBox="0 0 60 60" fill="none" xmlns="http://www.w3.org/2000/svg">
<rect width="60" height="60" rx="30" fill="url(#paint0_linear_222_71)"/>
<path d="M29.8343 40.1384C34.6904 40.1384 38.6365 36.1882 38.6365 31.3325C38.6365 26.4767 34.69 22.5303 29.8343 22.5303C24.9785 22.5303 21.0284 26.4764 21.0284 31.3325C21.0284 36.1886 24.9782 40.1384 29.8343 40.1384ZM29.8343 23.6482C34.0863 23.6482 37.5185 27.0804 37.5185 31.3325C37.5185 35.5845 34.0859 39.0204 29.8343 39.0204C25.5826 39.0204 22.1463 35.5841 22.1463 31.3325C22.1463 27.0808 25.5822 23.6482 29.8343 23.6482Z" fill="white"/>
<path d="M29.8343 35.8342C32.2771 35.8342 34.2615 33.8088 34.2615 31.3325C34.2615 28.8596 32.2771 26.8345 29.8343 26.8345C29.5257 26.8301 29.2716 27.0768 29.2675 27.3857C29.263 27.6943 29.5097 27.9484 29.8186 27.9525C29.8238 27.9525 29.8291 27.9525 29.8343 27.9525C31.6618 27.9525 33.1435 29.4528 33.1435 31.3325C33.1435 33.2163 31.6618 34.7163 29.8343 34.7163C28.0023 34.7163 26.5251 33.2171 26.5251 31.3325C26.5295 31.024 26.2828 30.7698 25.9739 30.7657C25.6653 30.7612 25.4116 31.0079 25.4071 31.3169C25.4071 31.3221 25.4071 31.3273 25.4071 31.3325C25.4071 33.8081 27.3881 35.8342 29.8343 35.8342Z" fill="white"/>
<path d="M40.8352 25.165C41.8063 25.165 42.5941 24.3548 42.5941 23.3837C42.5941 22.4107 41.8063 21.5986 40.8352 21.5986C39.864 21.5986 39.0762 22.4107 39.0762 23.3837C39.0762 24.3548 39.864 25.165 40.8352 25.165ZM40.8352 22.7166C41.1907 22.7166 41.4761 23.0002 41.4761 23.3837C41.4761 23.7615 41.1907 24.047 40.8352 24.047C40.4796 24.047 40.1942 23.7615 40.1942 23.3837C40.1942 23.0002 40.4796 22.7166 40.8352 22.7166Z" fill="white"/>
<path d="M42.5382 43.5706C44.2614 43.5706 45.6685 42.1336 45.6685 40.3918V22.2768C45.6685 20.535 44.2614 19.0981 42.5382 19.0981H22.9624V19.0757C22.9624 17.9432 22.0464 17 20.9165 17H18.2856C17.1557 17 16.236 17.9413 16.236 19.0757V19.2315C14.9421 19.625 14 20.8481 14 22.2768V40.3918C14 42.1325 15.4034 43.5706 17.1266 43.5706H42.5382ZM17.3539 19.0757C17.3539 18.5406 17.7758 18.118 18.2856 18.118H20.9165C21.4263 18.118 21.8445 18.5387 21.8445 19.0757V19.0981H17.3539V19.0757ZM15.118 40.3918V22.2768C15.118 21.2539 15.8529 20.4106 16.7905 20.2459C16.8434 20.2462 16.8959 20.2392 16.947 20.2246C17.0055 20.219 17.0659 20.216 17.1266 20.216H22.3125C22.3722 20.2257 22.4333 20.2257 22.4929 20.216H42.5382C43.6398 20.216 44.5506 21.1343 44.5506 22.2768V40.3918C44.5506 41.5344 43.6398 42.4526 42.5382 42.4526H17.1266C16.025 42.4526 15.118 41.5355 15.118 40.3918Z" fill="white"/>
<path d="M39.396 41.1071C39.4012 41.1071 39.4064 41.1071 39.4116 41.1071H41.3271C41.5954 41.1071 41.8235 41.1015 42.0493 41.059C42.2751 41.0165 42.5207 40.9226 42.7074 40.7318C43.0808 40.3502 43.079 39.881 43.079 39.2922V35.3085C43.0834 35 42.8367 34.7458 42.5278 34.7417C42.5222 34.7417 42.517 34.7417 42.5114 34.7417C42.2028 34.7462 41.9565 35 41.961 35.3085V39.2922C41.961 39.7327 41.9032 39.915 41.9017 39.9466C41.8902 39.95 41.8734 39.9545 41.8428 39.9604C41.7489 39.9779 41.5715 39.9895 41.3275 39.9895H39.4116C39.1031 39.985 38.8493 40.2317 38.8448 40.5406C38.8403 40.8488 39.087 41.1026 39.396 41.1071Z" fill="white"/>
<defs>
<linearGradient id="paint0_linear_222_71" x1="0" y1="30" x2="60" y2="30" gradientUnits="userSpaceOnUse">
<stop stop-color="#57BCFF"/>
<stop offset="1" stop-color="#0099FF"/>
</linearGradient>
</defs>
</svg>
